#tb 0: 1/25
#media_type 0: video
#codec_id 0: vp8
#dimensions 0: 352x288
#sar 0: 0/1
0,         -3,          0,        1,    21891, 0xd088d2f4
0,         -2,          1,        1,     5992, 0x299da906
0,         -1,          2,        1,     5602, 0xb532f781
0,          0,          3,        1,     5550, 0x208f68ae
0,          1,          4,        1,     5662, 0xb736e53d
0,          2,          5,        1,     5664, 0xbb09c8bc
0,          3,          6,        1,     5632, 0x0e33cfd8
0,          4,          7,        1,     5815, 0xe86206eb
0,          5,          8,        1,     5735, 0x8805fe5b
0,          6,          9,        1,     5761, 0x806b0ffd
0,          7,         10,        1,     5831, 0x3689f8ab
0,          8,         11,        1,     6015, 0xb0706af7
0,          9,         12,        1,     6054, 0x089f8a3c
0,         10,         13,        1,     6120, 0x2690df5e
0,         11,         14,        1,     6120, 0x34e2746f
0,         12,         15,        1,     6152, 0x5f2ab209
0,         13,         16,        1,     6374, 0x63fa1eb6
0,         14,         17,        1,     6362, 0xbbbe0ba8
0,         15,         18,        1,     6593, 0xd8d57abe
0,         16,         19,        1,     6639, 0x241ba167
0,         17,         20,        1,     6940, 0xba8e4b7d
0,         18,         21,        1,     6999, 0xc3c89ca0
0,         19,         22,        1,     7252, 0x5e30f36e
0,         20,         23,        1,     7121, 0xfdabc218
0,         21,         24,        1,     7373, 0x7a8b2629
0,         22,         25,        1,     7229, 0x6af2dadd
0,         23,         26,        1,     7281, 0xac58eff7
0,         24,         27,        1,     7542, 0x1c896dbf
0,         25,         28,        1,     7576, 0xa04e52ea
0,         26,         29,        1,     7811, 0x75c0d4b5
0,         27,         30,        1,    28175, 0xffe8e49d
0,         28,         31,        1,     8615, 0x96ce61b1
0,         29,         32,        1,     8367, 0x9213e37c
0,         30,         33,        1,     8293, 0x7705a9ba
0,         31,         34,        1,     8273, 0xadffbb87
0,         32,         35,        1,     8366, 0x6470e1bc
0,         33,         36,        1,     8505, 0xfa791662
0,         34,         37,        1,     8523, 0x4ba4256c
0,         35,         38,        1,     8734, 0x2059b07e
0,         36,         39,        1,     8468, 0xeb1befd2
0,         37,         40,        1,     8604, 0x7a7937ef
0,         38,         41,        1,     8666, 0x6c1a6c7c
0,         39,         42,        1,     8644, 0x1a199c41
0,         40,         43,        1,     8757, 0xfcbea662
0,         41,         44,        1,     8679, 0x5f854b45
0,         42,         45,        1,     8772, 0x17498fb2
0,         43,         46,        1,     8732, 0x8248a292
0,         44,         47,        1,     8855, 0xe692bbc9
0,         45,         48,        1,     8927, 0x9c9aca99
0,         46,         49,        1,     9003, 0xeac500a3
